<svg xmlns="http://www.w3.org/2000/svg" width="40.666" height="35.583" viewBox="0 0 40.666 35.583">
  <path id="Icon_awesome-hamburger" data-name="Icon awesome-hamburger" d="M36.854,20.042H3.812a3.812,3.812,0,0,0,0,7.625H36.854a3.812,3.812,0,0,0,0-7.625Zm1.271,10.167H2.542a1.271,1.271,0,0,0-1.271,1.271V32.75a5.083,5.083,0,0,0,5.083,5.083H34.312A5.083,5.083,0,0,0,39.4,32.75V31.479A1.271,1.271,0,0,0,38.125,30.208ZM4.658,17.5H36.009c2.746,0,4.338-3.487,2.766-6.027C35.583,6.317,28.558,2.258,20.333,2.25c-8.224.008-15.25,4.067-18.441,9.222C.318,14.012,1.912,17.5,4.658,17.5ZM30.5,8.6a1.271,1.271,0,1,1-1.271,1.271A1.271,1.271,0,0,1,30.5,8.6ZM20.333,6.062a1.271,1.271,0,1,1-1.271,1.271A1.271,1.271,0,0,1,20.333,6.062ZM10.167,8.6A1.271,1.271,0,1,1,8.9,9.875,1.271,1.271,0,0,1,10.167,8.6Z" transform="translate(0 -2.25)"/>
</svg>
